<?xml version="1.0" encoding="utf-8" standalone="no"?>
<!DOCTYPE svg PUBLIC "-//W3C//DTD SVG 1.1//EN"
  "http://www.w3.org/Graphics/SVG/1.1/DTD/svg11.dtd">
<svg xmlns:xlink="http://www.w3.org/1999/xlink" width="531.304576pt" height="226.838906pt" viewBox="0 0 531.304576 226.838906" xmlns="http://www.w3.org/2000/svg" version="1.1">
 <metadata>
  <rdf:RDF xmlns:dc="http://purl.org/dc/elements/1.1/" xmlns:cc="http://creativecommons.org/ns#" xmlns:rdf="http://www.w3.org/1999/02/22-rdf-syntax-ns#">
   <cc:Work>
    <dc:type rdf:resource="http://purl.org/dc/dcmitype/StillImage"/>
    <dc:date>2026-07-23T00:30:54.398283</dc:date>
    <dc:format>image/svg+xml</dc:format>
    <dc:creator>
     <cc:Agent>
      <dc:title>Matplotlib v3.11.1, https://matplotlib.org/</dc:title>
     </cc:Agent>
    </dc:creator>
   </cc:Work>
  </rdf:RDF>
 </metadata>
 <defs>
  <style type="text/css">*{stroke-linejoin: round; stroke-linecap: butt}</style>
 </defs>
 <g id="figure_1">
  <g id="patch_1">
   <path d="M -0 226.838906 
L 531.304576 226.838906 
L 531.304576 0 
L -0 0 
z
" style="fill: #ffffff"/>
  </g>
  <g id="axes_1">
   <g id="patch_2">
    <path d="M 52.483594 188.638125 
L 280.756321 188.638125 
L 280.756321 22.318125 
L 52.483594 22.318125 
z
" style="fill: #ffffff"/>
   </g>
   <g id="matplotlib.axis_1">
    <g id="xtick_1">
     <g id="line2d_1">
      <defs>
       <path id="m8c6bd49195" d="M 0 0 
L 0 3.5 
" style="stroke: #000000; stroke-width: 0.8"/>
      </defs>
      <g>
       <use xlink:href="#m8c6bd49195" x="62.859627" y="188.638125" style="stroke: #000000; stroke-width: 0.8"/>
      </g>
     </g>
     <g id="text_1">
      <!-- 0 -->
      <g transform="translate(59.678377 203.235781) scale(0.1 -0.1)">
       <defs>
        <path id="DejaVuSans-13" d="M 2034 4250 
Q 1547 4250 1301 3770 
Q 1056 3291 1056 2328 
Q 1056 1369 1301 889 
Q 1547 409 2034 409 
Q 2525 409 2770 889 
Q 3016 1369 3016 2328 
Q 3016 3291 2770 3770 
Q 2525 4250 2034 4250 
z
M 2034 4750 
Q 2819 4750 3233 4129 
Q 3647 3509 3647 2328 
Q 3647 1150 3233 529 
Q 2819 -91 2034 -91 
Q 1250 -91 836 529 
Q 422 1150 422 2328 
Q 422 3509 836 4129 
Q 1250 4750 2034 4750 
z
" transform="scale(0.015625)"/>
       </defs>
       <use xlink:href="#DejaVuSans-13"/>
      </g>
     </g>
    </g>
    <g id="xtick_2">
     <g id="line2d_2">
      <g>
       <use xlink:href="#m8c6bd49195" x="95.887566" y="188.638125" style="stroke: #000000; stroke-width: 0.8"/>
      </g>
     </g>
     <g id="text_2">
      <!-- 2 -->
      <g transform="translate(92.706316 203.235781) scale(0.1 -0.1)">
       <defs>
        <path id="DejaVuSans-15" d="M 1228 531 
L 3431 531 
L 3431 0 
L 469 0 
L 469 531 
Q 828 903 1448 1529 
Q 2069 2156 2228 2338 
Q 2531 2678 2651 2914 
Q 2772 3150 2772 3378 
Q 2772 3750 2511 3984 
Q 2250 4219 1831 4219 
Q 1534 4219 1204 4116 
Q 875 4013 500 3803 
L 500 4441 
Q 881 4594 1212 4672 
Q 1544 4750 1819 4750 
Q 2544 4750 2975 4387 
Q 3406 4025 3406 3419 
Q 3406 3131 3298 2873 
Q 3191 2616 2906 2266 
Q 2828 2175 2409 1742 
Q 1991 1309 1228 531 
z
" transform="scale(0.015625)"/>
       </defs>
       <use xlink:href="#DejaVuSans-15"/>
      </g>
     </g>
    </g>
    <g id="xtick_3">
     <g id="line2d_3">
      <g>
       <use xlink:href="#m8c6bd49195" x="128.915505" y="188.638125" style="stroke: #000000; stroke-width: 0.8"/>
      </g>
     </g>
     <g id="text_3">
      <!-- 4 -->
      <g transform="translate(125.734255 203.235781) scale(0.1 -0.1)">
       <defs>
        <path id="DejaVuSans-17" d="M 2419 4116 
L 825 1625 
L 2419 1625 
L 2419 4116 
z
M 2253 4666 
L 3047 4666 
L 3047 1625 
L 3713 1625 
L 3713 1100 
L 3047 1100 
L 3047 0 
L 2419 0 
L 2419 1100 
L 313 1100 
L 313 1709 
L 2253 4666 
z
" transform="scale(0.015625)"/>
       </defs>
       <use xlink:href="#DejaVuSans-17"/>
      </g>
     </g>
    </g>
    <g id="xtick_4">
     <g id="line2d_4">
      <g>
       <use xlink:href="#m8c6bd49195" x="161.943444" y="188.638125" style="stroke: #000000; stroke-width: 0.8"/>
      </g>
     </g>
     <g id="text_4">
      <!-- 6 -->
      <g transform="translate(158.762194 203.235781) scale(0.1 -0.1)">
       <defs>
        <path id="DejaVuSans-19" d="M 2113 2584 
Q 1688 2584 1439 2293 
Q 1191 2003 1191 1497 
Q 1191 994 1439 701 
Q 1688 409 2113 409 
Q 2538 409 2786 701 
Q 3034 994 3034 1497 
Q 3034 2003 2786 2293 
Q 2538 2584 2113 2584 
z
M 3366 4563 
L 3366 3988 
Q 3128 4100 2886 4159 
Q 2644 4219 2406 4219 
Q 1781 4219 1451 3797 
Q 1122 3375 1075 2522 
Q 1259 2794 1537 2939 
Q 1816 3084 2150 3084 
Q 2853 3084 3261 2657 
Q 3669 2231 3669 1497 
Q 3669 778 3244 343 
Q 2819 -91 2113 -91 
Q 1303 -91 875 529 
Q 447 1150 447 2328 
Q 447 3434 972 4092 
Q 1497 4750 2381 4750 
Q 2619 4750 2861 4703 
Q 3103 4656 3366 4563 
z
" transform="scale(0.015625)"/>
       </defs>
       <use xlink:href="#DejaVuSans-19"/>
      </g>
     </g>
    </g>
    <g id="xtick_5">
     <g id="line2d_5">
      <g>
       <use xlink:href="#m8c6bd49195" x="194.971383" y="188.638125" style="stroke: #000000; stroke-width: 0.8"/>
      </g>
     </g>
     <g id="text_5">
      <!-- 8 -->
      <g transform="translate(191.790133 203.235781) scale(0.1 -0.1)">
       <defs>
        <path id="DejaVuSans-1b" d="M 2034 2216 
Q 1584 2216 1326 1975 
Q 1069 1734 1069 1313 
Q 1069 891 1326 650 
Q 1584 409 2034 409 
Q 2484 409 2743 651 
Q 3003 894 3003 1313 
Q 3003 1734 2745 1975 
Q 2488 2216 2034 2216 
z
M 1403 2484 
Q 997 2584 770 2862 
Q 544 3141 544 3541 
Q 544 4100 942 4425 
Q 1341 4750 2034 4750 
Q 2731 4750 3128 4425 
Q 3525 4100 3525 3541 
Q 3525 3141 3298 2862 
Q 3072 2584 2669 2484 
Q 3125 2378 3379 2068 
Q 3634 1759 3634 1313 
Q 3634 634 3220 271 
Q 2806 -91 2034 -91 
Q 1263 -91 848 271 
Q 434 634 434 1313 
Q 434 1759 690 2068 
Q 947 2378 1403 2484 
z
M 1172 3481 
Q 1172 3119 1398 2916 
Q 1625 2713 2034 2713 
Q 2441 2713 2670 2916 
Q 2900 3119 2900 3481 
Q 2900 3844 2670 4047 
Q 2441 4250 2034 4250 
Q 1625 4250 1398 4047 
Q 1172 3844 1172 3481 
z
" transform="scale(0.015625)"/>
       </defs>
       <use xlink:href="#DejaVuSans-1b"/>
      </g>
     </g>
    </g>
    <g id="xtick_6">
     <g id="line2d_6">
      <g>
       <use xlink:href="#m8c6bd49195" x="227.999322" y="188.638125" style="stroke: #000000; stroke-width: 0.8"/>
      </g>
     </g>
     <g id="text_6">
      <!-- 10 -->
      <g transform="translate(221.636822 203.235781) scale(0.1 -0.1)">
       <defs>
        <path id="DejaVuSans-14" d="M 794 531 
L 1825 531 
L 1825 4091 
L 703 3866 
L 703 4441 
L 1819 4666 
L 2450 4666 
L 2450 531 
L 3481 531 
L 3481 0 
L 794 0 
L 794 531 
z
" transform="scale(0.015625)"/>
       </defs>
       <use xlink:href="#DejaVuSans-14"/>
       <use xlink:href="#DejaVuSans-13" transform="translate(63.625 0)"/>
      </g>
     </g>
    </g>
    <g id="xtick_7">
     <g id="line2d_7">
      <g>
       <use xlink:href="#m8c6bd49195" x="261.027261" y="188.638125" style="stroke: #000000; stroke-width: 0.8"/>
      </g>
     </g>
     <g id="text_7">
      <!-- 12 -->
      <g transform="translate(254.664761 203.235781) scale(0.1 -0.1)">
       <use xlink:href="#DejaVuSans-14"/>
       <use xlink:href="#DejaVuSans-15" transform="translate(63.625 0)"/>
      </g>
     </g>
    </g>
    <g id="text_8">
     <!-- time -->
     <g transform="translate(155.323864 217.236563) scale(0.1 -0.1)">
      <defs>
       <path id="DejaVuSans-57" d="M 1172 4494 
L 1172 3500 
L 2356 3500 
L 2356 3053 
L 1172 3053 
L 1172 1153 
Q 1172 725 1289 603 
Q 1406 481 1766 481 
L 2356 481 
L 2356 0 
L 1766 0 
Q 1100 0 847 248 
Q 594 497 594 1153 
L 594 3053 
L 172 3053 
L 172 3500 
L 594 3500 
L 594 4494 
L 1172 4494 
z
" transform="scale(0.015625)"/>
       <path id="DejaVuSans-4c" d="M 603 3500 
L 1178 3500 
L 1178 0 
L 603 0 
L 603 3500 
z
M 603 4863 
L 1178 4863 
L 1178 4134 
L 603 4134 
L 603 4863 
z
" transform="scale(0.015625)"/>
       <path id="DejaVuSans-50" d="M 3328 2828 
Q 3544 3216 3844 3400 
Q 4144 3584 4550 3584 
Q 5097 3584 5394 3201 
Q 5691 2819 5691 2113 
L 5691 0 
L 5113 0 
L 5113 2094 
Q 5113 2597 4934 2840 
Q 4756 3084 4391 3084 
Q 3944 3084 3684 2787 
Q 3425 2491 3425 1978 
L 3425 0 
L 2847 0 
L 2847 2094 
Q 2847 2600 2669 2842 
Q 2491 3084 2119 3084 
Q 1678 3084 1418 2786 
Q 1159 2488 1159 1978 
L 1159 0 
L 581 0 
L 581 3500 
L 1159 3500 
L 1159 2956 
Q 1356 3278 1631 3431 
Q 1906 3584 2284 3584 
Q 2666 3584 2933 3390 
Q 3200 3197 3328 2828 
z
" transform="scale(0.015625)"/>
       <path id="DejaVuSans-48" d="M 3597 1894 
L 3597 1613 
L 953 1613 
Q 991 1019 1311 708 
Q 1631 397 2203 397 
Q 2534 397 2845 478 
Q 3156 559 3463 722 
L 3463 178 
Q 3153 47 2828 -22 
Q 2503 -91 2169 -91 
Q 1331 -91 842 396 
Q 353 884 353 1716 
Q 353 2575 817 3079 
Q 1281 3584 2069 3584 
Q 2775 3584 3186 3129 
Q 3597 2675 3597 1894 
z
M 3022 2063 
Q 3016 2534 2758 2815 
Q 2500 3097 2075 3097 
Q 1594 3097 1305 2825 
Q 1016 2553 972 2059 
L 3022 2063 
z
" transform="scale(0.015625)"/>
      </defs>
      <use xlink:href="#DejaVuSans-57"/>
      <use xlink:href="#DejaVuSans-4c" transform="translate(39.203125 0)"/>
      <use xlink:href="#DejaVuSans-50" transform="translate(66.984375 0)"/>
      <use xlink:href="#DejaVuSans-48" transform="translate(164.390625 0)"/>
     </g>
    </g>
   </g>
   <g id="matplotlib.axis_2">
    <g id="ytick_1">
     <g id="line2d_8">
      <defs>
       <path id="m524d27ce88" d="M 0 0 
L -3.5 0 
" style="stroke: #000000; stroke-width: 0.8"/>
      </defs>
      <g>
       <use xlink:href="#m524d27ce88" x="52.483594" y="181.083908" style="stroke: #000000; stroke-width: 0.8"/>
      </g>
     </g>
     <g id="text_9">
      <!-- −1.0 -->
      <g transform="translate(21.200781 184.882736) scale(0.1 -0.1)">
       <defs>
        <path id="DejaVuSans-c9c" d="M 678 2272 
L 4684 2272 
L 4684 1741 
L 678 1741 
L 678 2272 
z
" transform="scale(0.015625)"/>
        <path id="DejaVuSans-11" d="M 684 794 
L 1344 794 
L 1344 0 
L 684 0 
L 684 794 
z
" transform="scale(0.015625)"/>
       </defs>
       <use xlink:href="#DejaVuSans-c9c"/>
       <use xlink:href="#DejaVuSans-14" transform="translate(83.796875 0)"/>
       <use xlink:href="#DejaVuSans-11" transform="translate(147.421875 0)"/>
       <use xlink:href="#DejaVuSans-13" transform="translate(179.203125 0)"/>
      </g>
     </g>
    </g>
    <g id="ytick_2">
     <g id="line2d_9">
      <g>
       <use xlink:href="#m524d27ce88" x="52.483594" y="143.281016" style="stroke: #000000; stroke-width: 0.8"/>
      </g>
     </g>
     <g id="text_10">
      <!-- −0.5 -->
      <g transform="translate(21.200781 147.079845) scale(0.1 -0.1)">
       <defs>
        <path id="DejaVuSans-18" d="M 691 4666 
L 3169 4666 
L 3169 4134 
L 1269 4134 
L 1269 2991 
Q 1406 3038 1543 3061 
Q 1681 3084 1819 3084 
Q 2600 3084 3056 2656 
Q 3513 2228 3513 1497 
Q 3513 744 3044 326 
Q 2575 -91 1722 -91 
Q 1428 -91 1123 -41 
Q 819 9 494 109 
L 494 744 
Q 775 591 1075 516 
Q 1375 441 1709 441 
Q 2250 441 2565 725 
Q 2881 1009 2881 1497 
Q 2881 1984 2565 2268 
Q 2250 2553 1709 2553 
Q 1456 2553 1204 2497 
Q 953 2441 691 2322 
L 691 4666 
z
" transform="scale(0.015625)"/>
       </defs>
       <use xlink:href="#DejaVuSans-c9c"/>
       <use xlink:href="#DejaVuSans-13" transform="translate(83.796875 0)"/>
       <use xlink:href="#DejaVuSans-11" transform="translate(147.421875 0)"/>
       <use xlink:href="#DejaVuSans-18" transform="translate(179.203125 0)"/>
      </g>
     </g>
    </g>
    <g id="ytick_3">
     <g id="line2d_10">
      <g>
       <use xlink:href="#m524d27ce88" x="52.483594" y="105.478125" style="stroke: #000000; stroke-width: 0.8"/>
      </g>
     </g>
     <g id="text_11">
      <!-- 0.0 -->
      <g transform="translate(29.580469 109.276953) scale(0.1 -0.1)">
       <use xlink:href="#DejaVuSans-13"/>
       <use xlink:href="#DejaVuSans-11" transform="translate(63.625 0)"/>
       <use xlink:href="#DejaVuSans-13" transform="translate(95.40625 0)"/>
      </g>
     </g>
    </g>
    <g id="ytick_4">
     <g id="line2d_11">
      <g>
       <use xlink:href="#m524d27ce88" x="52.483594" y="67.675234" style="stroke: #000000; stroke-width: 0.8"/>
      </g>
     </g>
     <g id="text_12">
      <!-- 0.5 -->
      <g transform="translate(29.580469 71.474062) scale(0.1 -0.1)">
       <use xlink:href="#DejaVuSans-13"/>
       <use xlink:href="#DejaVuSans-11" transform="translate(63.625 0)"/>
       <use xlink:href="#DejaVuSans-18" transform="translate(95.40625 0)"/>
      </g>
     </g>
    </g>
    <g id="ytick_5">
     <g id="line2d_12">
      <g>
       <use xlink:href="#m524d27ce88" x="52.483594" y="29.872342" style="stroke: #000000; stroke-width: 0.8"/>
      </g>
     </g>
     <g id="text_13">
      <!-- 1.0 -->
      <g transform="translate(29.580469 33.67117) scale(0.1 -0.1)">
       <use xlink:href="#DejaVuSans-14"/>
       <use xlink:href="#DejaVuSans-11" transform="translate(63.625 0)"/>
       <use xlink:href="#DejaVuSans-13" transform="translate(95.40625 0)"/>
      </g>
     </g>
    </g>
    <g id="text_14">
     <!-- value -->
     <g transform="translate(14.798438 119.135938) rotate(-90) scale(0.1 -0.1)">
      <defs>
       <path id="DejaVuSans-59" d="M 191 3500 
L 800 3500 
L 1894 563 
L 2988 3500 
L 3597 3500 
L 2284 0 
L 1503 0 
L 191 3500 
z
" transform="scale(0.015625)"/>
       <path id="DejaVuSans-44" d="M 2194 1759 
Q 1497 1759 1228 1600 
Q 959 1441 959 1056 
Q 959 750 1161 570 
Q 1363 391 1709 391 
Q 2188 391 2477 730 
Q 2766 1069 2766 1631 
L 2766 1759 
L 2194 1759 
z
M 3341 1997 
L 3341 0 
L 2766 0 
L 2766 531 
Q 2569 213 2275 61 
Q 1981 -91 1556 -91 
Q 1019 -91 701 211 
Q 384 513 384 1019 
Q 384 1609 779 1909 
Q 1175 2209 1959 2209 
L 2766 2209 
L 2766 2266 
Q 2766 2663 2505 2880 
Q 2244 3097 1772 3097 
Q 1472 3097 1187 3025 
Q 903 2953 641 2809 
L 641 3341 
Q 956 3463 1253 3523 
Q 1550 3584 1831 3584 
Q 2591 3584 2966 3190 
Q 3341 2797 3341 1997 
z
" transform="scale(0.015625)"/>
       <path id="DejaVuSans-4f" d="M 603 4863 
L 1178 4863 
L 1178 0 
L 603 0 
L 603 4863 
z
" transform="scale(0.015625)"/>
       <path id="DejaVuSans-58" d="M 544 1381 
L 544 3500 
L 1119 3500 
L 1119 1403 
Q 1119 906 1312 657 
Q 1506 409 1894 409 
Q 2359 409 2629 706 
Q 2900 1003 2900 1516 
L 2900 3500 
L 3475 3500 
L 3475 0 
L 2900 0 
L 2900 538 
Q 2691 219 2414 64 
Q 2138 -91 1772 -91 
Q 1169 -91 856 284 
Q 544 659 544 1381 
z
M 1991 3584 
L 1991 3584 
z
" transform="scale(0.015625)"/>
      </defs>
      <use xlink:href="#DejaVuSans-59"/>
      <use xlink:href="#DejaVuSans-44" transform="translate(59.1875 0)"/>
      <use xlink:href="#DejaVuSans-4f" transform="translate(120.46875 0)"/>
      <use xlink:href="#DejaVuSans-58" transform="translate(148.25 0)"/>
      <use xlink:href="#DejaVuSans-48" transform="translate(211.625 0)"/>
     </g>
    </g>
   </g>
   <g id="line2d_13">
    <path d="M 62.859627 105.478125 
L 67.76169 83.363197 
L 71.029732 69.580351 
L 74.297773 57.198775 
L 75.931794 51.68717 
L 77.565815 46.701785 
L 79.199836 42.29139 
L 80.833857 38.49913 
L 82.467878 35.362105 
L 84.101899 32.911003 
L 85.73592 31.169801 
L 87.369941 30.155535 
L 89.003962 29.878125 
L 90.637983 30.340286 
L 92.272004 31.537497 
L 93.906025 33.458045 
L 95.540046 36.083142 
L 97.174067 39.387109 
L 98.808088 43.337623 
L 100.442109 47.896038 
L 102.07613 53.01776 
L 103.710151 58.652685 
L 106.978193 71.237165 
L 110.246234 85.158241 
L 116.782318 114.805583 
L 120.05036 129.374564 
L 123.318402 143.010748 
L 126.586444 155.181844 
L 128.220465 160.566757 
L 129.854486 165.412754 
L 131.488507 169.672431 
L 133.122528 173.304115 
L 134.756549 176.272279 
L 136.39057 178.547886 
L 138.024591 180.108675 
L 139.658612 180.939378 
L 141.292633 181.031866 
L 142.926654 180.385237 
L 144.560675 179.005815 
L 146.194695 176.907095 
L 147.828716 174.109609 
L 149.462737 170.640722 
L 151.096758 166.53437 
L 152.730779 161.830725 
L 154.3648 156.5758 
L 155.998821 150.821003 
L 159.266863 138.04132 
L 162.534905 123.990532 
L 173.973052 72.91493 
L 177.241094 60.135247 
L 178.875115 54.38045 
L 180.509135 49.125525 
L 182.143156 44.42188 
L 183.777177 40.315528 
L 185.411198 36.846641 
L 187.045219 34.049155 
L 188.67924 31.950435 
L 190.313261 30.571013 
L 191.947282 29.924384 
L 193.581303 30.016872 
L 195.215324 30.847575 
L 196.849345 32.408364 
L 198.483366 34.683971 
L 200.117387 37.652135 
L 201.751408 41.283819 
L 203.385429 45.543496 
L 205.01945 50.389493 
L 206.653471 55.774406 
L 208.287492 61.645554 
L 211.555534 74.61262 
L 214.823576 88.784522 
L 224.627701 132.892641 
L 227.895743 146.210561 
L 229.529764 152.303565 
L 231.163785 157.93849 
L 232.797806 163.060212 
L 234.431827 167.618627 
L 236.065848 171.569141 
L 237.699869 174.873108 
L 239.33389 177.498205 
L 240.967911 179.418753 
L 242.601932 180.615964 
L 244.235953 181.078125 
L 245.869974 180.800715 
L 247.503995 179.786449 
L 249.138016 178.045247 
L 250.772037 175.594145 
L 252.406057 172.45712 
L 254.040078 168.66486 
L 255.674099 164.254465 
L 257.30812 159.26908 
L 258.942141 153.757475 
L 262.210183 141.375899 
L 265.478225 127.593053 
L 270.380288 105.478125 
L 270.380288 105.478125 
" clip-path="url(#p701a1e40a1)" style="fill: none; stroke: #2457a6; stroke-width: 1.5; stroke-linecap: square"/>
   </g>
   <g id="patch_3">
    <path d="M 52.483594 188.638125 
L 52.483594 22.318125 
" style="fill: none; stroke: #000000; stroke-width: 0.8; stroke-linejoin: miter; stroke-linecap: square"/>
   </g>
   <g id="patch_4">
    <path d="M 280.756321 188.638125 
L 280.756321 22.318125 
" style="fill: none; stroke: #000000; stroke-width: 0.8; stroke-linejoin: miter; stroke-linecap: square"/>
   </g>
   <g id="patch_5">
    <path d="M 52.483594 188.638125 
L 280.756321 188.638125 
" style="fill: none; stroke: #000000; stroke-width: 0.8; stroke-linejoin: miter; stroke-linecap: square"/>
   </g>
   <g id="patch_6">
    <path d="M 52.483594 22.318125 
L 280.756321 22.318125 
" style="fill: none; stroke: #000000; stroke-width: 0.8; stroke-linejoin: miter; stroke-linecap: square"/>
   </g>
   <g id="text_15">
    <!-- signal -->
    <g transform="translate(148.872145 16.318125) scale(0.12 -0.12)">
     <defs>
      <path id="DejaVuSans-56" d="M 2834 3397 
L 2834 2853 
Q 2591 2978 2328 3040 
Q 2066 3103 1784 3103 
Q 1356 3103 1142 2972 
Q 928 2841 928 2578 
Q 928 2378 1081 2264 
Q 1234 2150 1697 2047 
L 1894 2003 
Q 2506 1872 2764 1633 
Q 3022 1394 3022 966 
Q 3022 478 2636 193 
Q 2250 -91 1575 -91 
Q 1294 -91 989 -36 
Q 684 19 347 128 
L 347 722 
Q 666 556 975 473 
Q 1284 391 1588 391 
Q 1994 391 2212 530 
Q 2431 669 2431 922 
Q 2431 1156 2273 1281 
Q 2116 1406 1581 1522 
L 1381 1569 
Q 847 1681 609 1914 
Q 372 2147 372 2553 
Q 372 3047 722 3315 
Q 1072 3584 1716 3584 
Q 2034 3584 2315 3537 
Q 2597 3491 2834 3397 
z
" transform="scale(0.015625)"/>
      <path id="DejaVuSans-4a" d="M 2906 1791 
Q 2906 2416 2648 2759 
Q 2391 3103 1925 3103 
Q 1463 3103 1205 2759 
Q 947 2416 947 1791 
Q 947 1169 1205 825 
Q 1463 481 1925 481 
Q 2391 481 2648 825 
Q 2906 1169 2906 1791 
z
M 3481 434 
Q 3481 -459 3084 -895 
Q 2688 -1331 1869 -1331 
Q 1566 -1331 1297 -1286 
Q 1028 -1241 775 -1147 
L 775 -588 
Q 1028 -725 1275 -790 
Q 1522 -856 1778 -856 
Q 2344 -856 2625 -561 
Q 2906 -266 2906 331 
L 2906 616 
Q 2728 306 2450 153 
Q 2172 0 1784 0 
Q 1141 0 747 490 
Q 353 981 353 1791 
Q 353 2603 747 3093 
Q 1141 3584 1784 3584 
Q 2172 3584 2450 3431 
Q 2728 3278 2906 2969 
L 2906 3500 
L 3481 3500 
L 3481 434 
z
" transform="scale(0.015625)"/>
      <path id="DejaVuSans-51" d="M 3513 2113 
L 3513 0 
L 2938 0 
L 2938 2094 
Q 2938 2591 2744 2837 
Q 2550 3084 2163 3084 
Q 1697 3084 1428 2787 
Q 1159 2491 1159 1978 
L 1159 0 
L 581 0 
L 581 3500 
L 1159 3500 
L 1159 2956 
Q 1366 3272 1645 3428 
Q 1925 3584 2291 3584 
Q 2894 3584 3203 3211 
Q 3513 2838 3513 2113 
z
" transform="scale(0.015625)"/>
     </defs>
     <use xlink:href="#DejaVuSans-56"/>
     <use xlink:href="#DejaVuSans-4c" transform="translate(52.09375 0)"/>
     <use xlink:href="#DejaVuSans-4a" transform="translate(79.875 0)"/>
     <use xlink:href="#DejaVuSans-51" transform="translate(143.359375 0)"/>
     <use xlink:href="#DejaVuSans-44" transform="translate(206.734375 0)"/>
     <use xlink:href="#DejaVuSans-4f" transform="translate(268.015625 0)"/>
    </g>
   </g>
  </g>
  <g id="axes_2">
   <g id="patch_7">
    <path d="M 357.38723 188.638125 
L 523.70723 188.638125 
L 523.70723 22.318125 
L 357.38723 22.318125 
z
" style="fill: #ffffff"/>
   </g>
   <g id="PathCollection_1">
    <defs>
     <path id="m4589a3f6f3" d="M 0 1.732051 
C 0.459345 1.732051 0.899939 1.549551 1.224745 1.224745 
C 1.549551 0.899939 1.732051 0.459345 1.732051 0 
C 1.732051 -0.459345 1.549551 -0.899939 1.224745 -1.224745 
C 0.899939 -1.549551 0.459345 -1.732051 0 -1.732051 
C -0.459345 -1.732051 -0.899939 -1.549551 -1.224745 -1.224745 
C -1.549551 -0.899939 -1.732051 -0.459345 -1.732051 0 
C -1.732051 0.459345 -1.549551 0.899939 -1.224745 1.224745 
C -0.899939 1.549551 -0.459345 1.732051 0 1.732051 
z
" style="stroke: #e07a5f"/>
    </defs>
    <g clip-path="url(#p28e1143313)">
     <use xlink:href="#m4589a3f6f3" x="440.54723" y="51.68717" style="fill: #e07a5f; stroke: #e07a5f"/>
     <use xlink:href="#m4589a3f6f3" x="448.016055" y="46.701785" style="fill: #e07a5f; stroke: #e07a5f"/>
     <use xlink:href="#m4589a3f6f3" x="455.411814" y="42.29139" style="fill: #e07a5f; stroke: #e07a5f"/>
     <use xlink:href="#m4589a3f6f3" x="462.662158" y="38.49913" style="fill: #e07a5f; stroke: #e07a5f"/>
     <use xlink:href="#m4589a3f6f3" x="469.696158" y="35.362105" style="fill: #e07a5f; stroke: #e07a5f"/>
     <use xlink:href="#m4589a3f6f3" x="476.445004" y="32.911003" style="fill: #e07a5f; stroke: #e07a5f"/>
     <use xlink:href="#m4589a3f6f3" x="482.842674" y="31.169801" style="fill: #e07a5f; stroke: #e07a5f"/>
     <use xlink:href="#m4589a3f6f3" x="488.82658" y="30.155535" style="fill: #e07a5f; stroke: #e07a5f"/>
     <use xlink:href="#m4589a3f6f3" x="494.338185" y="29.878125" style="fill: #e07a5f; stroke: #e07a5f"/>
     <use xlink:href="#m4589a3f6f3" x="499.323571" y="30.340286" style="fill: #e07a5f; stroke: #e07a5f"/>
     <use xlink:href="#m4589a3f6f3" x="503.733966" y="31.537497" style="fill: #e07a5f; stroke: #e07a5f"/>
     <use xlink:href="#m4589a3f6f3" x="507.526225" y="33.458045" style="fill: #e07a5f; stroke: #e07a5f"/>
     <use xlink:href="#m4589a3f6f3" x="510.66325" y="36.083142" style="fill: #e07a5f; stroke: #e07a5f"/>
     <use xlink:href="#m4589a3f6f3" x="513.114352" y="39.387109" style="fill: #e07a5f; stroke: #e07a5f"/>
     <use xlink:href="#m4589a3f6f3" x="514.855554" y="43.337623" style="fill: #e07a5f; stroke: #e07a5f"/>
     <use xlink:href="#m4589a3f6f3" x="515.86982" y="47.896038" style="fill: #e07a5f; stroke: #e07a5f"/>
     <use xlink:href="#m4589a3f6f3" x="516.14723" y="53.01776" style="fill: #e07a5f; stroke: #e07a5f"/>
     <use xlink:href="#m4589a3f6f3" x="515.685069" y="58.652685" style="fill: #e07a5f; stroke: #e07a5f"/>
     <use xlink:href="#m4589a3f6f3" x="514.487859" y="64.745689" style="fill: #e07a5f; stroke: #e07a5f"/>
     <use xlink:href="#m4589a3f6f3" x="512.56731" y="71.237165" style="fill: #e07a5f; stroke: #e07a5f"/>
     <use xlink:href="#m4589a3f6f3" x="509.942213" y="78.063609" style="fill: #e07a5f; stroke: #e07a5f"/>
     <use xlink:href="#m4589a3f6f3" x="506.638246" y="85.158241" style="fill: #e07a5f; stroke: #e07a5f"/>
     <use xlink:href="#m4589a3f6f3" x="502.687732" y="92.451656" style="fill: #e07a5f; stroke: #e07a5f"/>
     <use xlink:href="#m4589a3f6f3" x="498.129317" y="99.872504" style="fill: #e07a5f; stroke: #e07a5f"/>
     <use xlink:href="#m4589a3f6f3" x="493.007595" y="107.348191" style="fill: #e07a5f; stroke: #e07a5f"/>
     <use xlink:href="#m4589a3f6f3" x="487.37267" y="114.805583" style="fill: #e07a5f; stroke: #e07a5f"/>
     <use xlink:href="#m4589a3f6f3" x="481.279666" y="122.171728" style="fill: #e07a5f; stroke: #e07a5f"/>
     <use xlink:href="#m4589a3f6f3" x="474.788191" y="129.374564" style="fill: #e07a5f; stroke: #e07a5f"/>
     <use xlink:href="#m4589a3f6f3" x="467.961746" y="136.34363" style="fill: #e07a5f; stroke: #e07a5f"/>
     <use xlink:href="#m4589a3f6f3" x="460.867114" y="143.010748" style="fill: #e07a5f; stroke: #e07a5f"/>
     <use xlink:href="#m4589a3f6f3" x="453.5737" y="149.310696" style="fill: #e07a5f; stroke: #e07a5f"/>
     <use xlink:href="#m4589a3f6f3" x="446.152851" y="155.181844" style="fill: #e07a5f; stroke: #e07a5f"/>
     <use xlink:href="#m4589a3f6f3" x="438.677164" y="160.566757" style="fill: #e07a5f; stroke: #e07a5f"/>
     <use xlink:href="#m4589a3f6f3" x="431.219772" y="165.412754" style="fill: #e07a5f; stroke: #e07a5f"/>
     <use xlink:href="#m4589a3f6f3" x="423.853627" y="169.672431" style="fill: #e07a5f; stroke: #e07a5f"/>
     <use xlink:href="#m4589a3f6f3" x="416.650791" y="173.304115" style="fill: #e07a5f; stroke: #e07a5f"/>
     <use xlink:href="#m4589a3f6f3" x="409.681725" y="176.272279" style="fill: #e07a5f; stroke: #e07a5f"/>
     <use xlink:href="#m4589a3f6f3" x="403.014607" y="178.547886" style="fill: #e07a5f; stroke: #e07a5f"/>
     <use xlink:href="#m4589a3f6f3" x="396.714659" y="180.108675" style="fill: #e07a5f; stroke: #e07a5f"/>
     <use xlink:href="#m4589a3f6f3" x="390.843511" y="180.939378" style="fill: #e07a5f; stroke: #e07a5f"/>
     <use xlink:href="#m4589a3f6f3" x="385.458599" y="181.031866" style="fill: #e07a5f; stroke: #e07a5f"/>
     <use xlink:href="#m4589a3f6f3" x="380.612601" y="180.385237" style="fill: #e07a5f; stroke: #e07a5f"/>
     <use xlink:href="#m4589a3f6f3" x="376.352924" y="179.005815" style="fill: #e07a5f; stroke: #e07a5f"/>
     <use xlink:href="#m4589a3f6f3" x="372.72124" y="176.907095" style="fill: #e07a5f; stroke: #e07a5f"/>
     <use xlink:href="#m4589a3f6f3" x="369.753076" y="174.109609" style="fill: #e07a5f; stroke: #e07a5f"/>
     <use xlink:href="#m4589a3f6f3" x="367.477469" y="170.640722" style="fill: #e07a5f; stroke: #e07a5f"/>
     <use xlink:href="#m4589a3f6f3" x="365.91668" y="166.53437" style="fill: #e07a5f; stroke: #e07a5f"/>
     <use xlink:href="#m4589a3f6f3" x="365.085977" y="161.830725" style="fill: #e07a5f; stroke: #e07a5f"/>
     <use xlink:href="#m4589a3f6f3" x="364.993489" y="156.5758" style="fill: #e07a5f; stroke: #e07a5f"/>
     <use xlink:href="#m4589a3f6f3" x="365.640118" y="150.821003" style="fill: #e07a5f; stroke: #e07a5f"/>
     <use xlink:href="#m4589a3f6f3" x="367.01954" y="144.622631" style="fill: #e07a5f; stroke: #e07a5f"/>
     <use xlink:href="#m4589a3f6f3" x="369.11826" y="138.04132" style="fill: #e07a5f; stroke: #e07a5f"/>
     <use xlink:href="#m4589a3f6f3" x="371.915746" y="131.141454" style="fill: #e07a5f; stroke: #e07a5f"/>
     <use xlink:href="#m4589a3f6f3" x="375.384633" y="123.990532" style="fill: #e07a5f; stroke: #e07a5f"/>
     <use xlink:href="#m4589a3f6f3" x="379.490985" y="116.658509" style="fill: #e07a5f; stroke: #e07a5f"/>
     <use xlink:href="#m4589a3f6f3" x="384.19463" y="109.217112" style="fill: #e07a5f; stroke: #e07a5f"/>
     <use xlink:href="#m4589a3f6f3" x="389.449555" y="101.739138" style="fill: #e07a5f; stroke: #e07a5f"/>
     <use xlink:href="#m4589a3f6f3" x="395.204352" y="94.297741" style="fill: #e07a5f; stroke: #e07a5f"/>
     <use xlink:href="#m4589a3f6f3" x="401.402725" y="86.965718" style="fill: #e07a5f; stroke: #e07a5f"/>
     <use xlink:href="#m4589a3f6f3" x="407.984035" y="79.814796" style="fill: #e07a5f; stroke: #e07a5f"/>
     <use xlink:href="#m4589a3f6f3" x="414.883901" y="72.91493" style="fill: #e07a5f; stroke: #e07a5f"/>
     <use xlink:href="#m4589a3f6f3" x="422.034823" y="66.333619" style="fill: #e07a5f; stroke: #e07a5f"/>
     <use xlink:href="#m4589a3f6f3" x="429.366846" y="60.135247" style="fill: #e07a5f; stroke: #e07a5f"/>
     <use xlink:href="#m4589a3f6f3" x="436.808243" y="54.38045" style="fill: #e07a5f; stroke: #e07a5f"/>
     <use xlink:href="#m4589a3f6f3" x="444.286217" y="49.125525" style="fill: #e07a5f; stroke: #e07a5f"/>
     <use xlink:href="#m4589a3f6f3" x="451.727614" y="44.42188" style="fill: #e07a5f; stroke: #e07a5f"/>
     <use xlink:href="#m4589a3f6f3" x="459.059637" y="40.315528" style="fill: #e07a5f; stroke: #e07a5f"/>
     <use xlink:href="#m4589a3f6f3" x="466.210559" y="36.846641" style="fill: #e07a5f; stroke: #e07a5f"/>
     <use xlink:href="#m4589a3f6f3" x="473.110425" y="34.049155" style="fill: #e07a5f; stroke: #e07a5f"/>
     <use xlink:href="#m4589a3f6f3" x="479.691736" y="31.950435" style="fill: #e07a5f; stroke: #e07a5f"/>
     <use xlink:href="#m4589a3f6f3" x="485.890108" y="30.571013" style="fill: #e07a5f; stroke: #e07a5f"/>
     <use xlink:href="#m4589a3f6f3" x="491.644905" y="29.924384" style="fill: #e07a5f; stroke: #e07a5f"/>
     <use xlink:href="#m4589a3f6f3" x="496.89983" y="30.016872" style="fill: #e07a5f; stroke: #e07a5f"/>
     <use xlink:href="#m4589a3f6f3" x="501.603475" y="30.847575" style="fill: #e07a5f; stroke: #e07a5f"/>
     <use xlink:href="#m4589a3f6f3" x="505.709827" y="32.408364" style="fill: #e07a5f; stroke: #e07a5f"/>
     <use xlink:href="#m4589a3f6f3" x="509.178714" y="34.683971" style="fill: #e07a5f; stroke: #e07a5f"/>
     <use xlink:href="#m4589a3f6f3" x="511.9762" y="37.652135" style="fill: #e07a5f; stroke: #e07a5f"/>
     <use xlink:href="#m4589a3f6f3" x="514.07492" y="41.283819" style="fill: #e07a5f; stroke: #e07a5f"/>
     <use xlink:href="#m4589a3f6f3" x="515.454342" y="45.543496" style="fill: #e07a5f; stroke: #e07a5f"/>
     <use xlink:href="#m4589a3f6f3" x="516.100972" y="50.389493" style="fill: #e07a5f; stroke: #e07a5f"/>
     <use xlink:href="#m4589a3f6f3" x="516.008483" y="55.774406" style="fill: #e07a5f; stroke: #e07a5f"/>
     <use xlink:href="#m4589a3f6f3" x="515.177781" y="61.645554" style="fill: #e07a5f; stroke: #e07a5f"/>
     <use xlink:href="#m4589a3f6f3" x="513.616991" y="67.945502" style="fill: #e07a5f; stroke: #e07a5f"/>
     <use xlink:href="#m4589a3f6f3" x="511.341384" y="74.61262" style="fill: #e07a5f; stroke: #e07a5f"/>
     <use xlink:href="#m4589a3f6f3" x="508.37322" y="81.581686" style="fill: #e07a5f; stroke: #e07a5f"/>
     <use xlink:href="#m4589a3f6f3" x="504.741536" y="88.784522" style="fill: #e07a5f; stroke: #e07a5f"/>
     <use xlink:href="#m4589a3f6f3" x="500.48186" y="96.150667" style="fill: #e07a5f; stroke: #e07a5f"/>
     <use xlink:href="#m4589a3f6f3" x="495.635862" y="103.608059" style="fill: #e07a5f; stroke: #e07a5f"/>
     <use xlink:href="#m4589a3f6f3" x="490.250949" y="111.083746" style="fill: #e07a5f; stroke: #e07a5f"/>
     <use xlink:href="#m4589a3f6f3" x="484.379801" y="118.504594" style="fill: #e07a5f; stroke: #e07a5f"/>
     <use xlink:href="#m4589a3f6f3" x="478.079853" y="125.798009" style="fill: #e07a5f; stroke: #e07a5f"/>
     <use xlink:href="#m4589a3f6f3" x="471.412735" y="132.892641" style="fill: #e07a5f; stroke: #e07a5f"/>
     <use xlink:href="#m4589a3f6f3" x="464.44367" y="139.719085" style="fill: #e07a5f; stroke: #e07a5f"/>
     <use xlink:href="#m4589a3f6f3" x="457.240833" y="146.210561" style="fill: #e07a5f; stroke: #e07a5f"/>
     <use xlink:href="#m4589a3f6f3" x="449.874688" y="152.303565" style="fill: #e07a5f; stroke: #e07a5f"/>
     <use xlink:href="#m4589a3f6f3" x="442.417296" y="157.93849" style="fill: #e07a5f; stroke: #e07a5f"/>
     <use xlink:href="#m4589a3f6f3" x="434.941609" y="163.060212" style="fill: #e07a5f; stroke: #e07a5f"/>
     <use xlink:href="#m4589a3f6f3" x="427.520761" y="167.618627" style="fill: #e07a5f; stroke: #e07a5f"/>
     <use xlink:href="#m4589a3f6f3" x="420.227346" y="171.569141" style="fill: #e07a5f; stroke: #e07a5f"/>
     <use xlink:href="#m4589a3f6f3" x="413.132714" y="174.873108" style="fill: #e07a5f; stroke: #e07a5f"/>
     <use xlink:href="#m4589a3f6f3" x="406.30627" y="177.498205" style="fill: #e07a5f; stroke: #e07a5f"/>
     <use xlink:href="#m4589a3f6f3" x="399.814794" y="179.418753" style="fill: #e07a5f; stroke: #e07a5f"/>
     <use xlink:href="#m4589a3f6f3" x="393.72179" y="180.615964" style="fill: #e07a5f; stroke: #e07a5f"/>
     <use xlink:href="#m4589a3f6f3" x="388.086865" y="181.078125" style="fill: #e07a5f; stroke: #e07a5f"/>
     <use xlink:href="#m4589a3f6f3" x="382.965143" y="180.800715" style="fill: #e07a5f; stroke: #e07a5f"/>
     <use xlink:href="#m4589a3f6f3" x="378.406728" y="179.786449" style="fill: #e07a5f; stroke: #e07a5f"/>
     <use xlink:href="#m4589a3f6f3" x="374.456214" y="178.045247" style="fill: #e07a5f; stroke: #e07a5f"/>
     <use xlink:href="#m4589a3f6f3" x="371.152247" y="175.594145" style="fill: #e07a5f; stroke: #e07a5f"/>
     <use xlink:href="#m4589a3f6f3" x="368.52715" y="172.45712" style="fill: #e07a5f; stroke: #e07a5f"/>
     <use xlink:href="#m4589a3f6f3" x="366.606602" y="168.66486" style="fill: #e07a5f; stroke: #e07a5f"/>
     <use xlink:href="#m4589a3f6f3" x="365.409391" y="164.254465" style="fill: #e07a5f; stroke: #e07a5f"/>
     <use xlink:href="#m4589a3f6f3" x="364.94723" y="159.26908" style="fill: #e07a5f; stroke: #e07a5f"/>
     <use xlink:href="#m4589a3f6f3" x="365.22464" y="153.757475" style="fill: #e07a5f; stroke: #e07a5f"/>
     <use xlink:href="#m4589a3f6f3" x="366.238907" y="147.773569" style="fill: #e07a5f; stroke: #e07a5f"/>
     <use xlink:href="#m4589a3f6f3" x="367.980108" y="141.375899" style="fill: #e07a5f; stroke: #e07a5f"/>
     <use xlink:href="#m4589a3f6f3" x="370.43121" y="134.627053" style="fill: #e07a5f; stroke: #e07a5f"/>
     <use xlink:href="#m4589a3f6f3" x="373.568235" y="127.593053" style="fill: #e07a5f; stroke: #e07a5f"/>
     <use xlink:href="#m4589a3f6f3" x="377.360495" y="120.342709" style="fill: #e07a5f; stroke: #e07a5f"/>
     <use xlink:href="#m4589a3f6f3" x="381.77089" y="112.94695" style="fill: #e07a5f; stroke: #e07a5f"/>
     <use xlink:href="#m4589a3f6f3" x="386.756275" y="105.478125" style="fill: #e07a5f; stroke: #e07a5f"/>
    </g>
   </g>
   <g id="matplotlib.axis_3">
    <g id="xtick_8">
     <g id="line2d_14">
      <g>
       <use xlink:href="#m8c6bd49195" x="364.941447" y="188.638125" style="stroke: #000000; stroke-width: 0.8"/>
      </g>
     </g>
     <g id="text_16">
      <!-- −1.0 -->
      <g transform="translate(352.800041 203.235781) scale(0.1 -0.1)">
       <use xlink:href="#DejaVuSans-c9c"/>
       <use xlink:href="#DejaVuSans-14" transform="translate(83.796875 0)"/>
       <use xlink:href="#DejaVuSans-11" transform="translate(147.421875 0)"/>
       <use xlink:href="#DejaVuSans-13" transform="translate(179.203125 0)"/>
      </g>
     </g>
    </g>
    <g id="xtick_9">
     <g id="line2d_15">
      <g>
       <use xlink:href="#m8c6bd49195" x="402.744339" y="188.638125" style="stroke: #000000; stroke-width: 0.8"/>
      </g>
     </g>
     <g id="text_17">
      <!-- −0.5 -->
      <g transform="translate(390.602932 203.235781) scale(0.1 -0.1)">
       <use xlink:href="#DejaVuSans-c9c"/>
       <use xlink:href="#DejaVuSans-13" transform="translate(83.796875 0)"/>
       <use xlink:href="#DejaVuSans-11" transform="translate(147.421875 0)"/>
       <use xlink:href="#DejaVuSans-18" transform="translate(179.203125 0)"/>
      </g>
     </g>
    </g>
    <g id="xtick_10">
     <g id="line2d_16">
      <g>
       <use xlink:href="#m8c6bd49195" x="440.54723" y="188.638125" style="stroke: #000000; stroke-width: 0.8"/>
      </g>
     </g>
     <g id="text_18">
      <!-- 0.0 -->
      <g transform="translate(432.595668 203.235781) scale(0.1 -0.1)">
       <use xlink:href="#DejaVuSans-13"/>
       <use xlink:href="#DejaVuSans-11" transform="translate(63.625 0)"/>
       <use xlink:href="#DejaVuSans-13" transform="translate(95.40625 0)"/>
      </g>
     </g>
    </g>
    <g id="xtick_11">
     <g id="line2d_17">
      <g>
       <use xlink:href="#m8c6bd49195" x="478.350122" y="188.638125" style="stroke: #000000; stroke-width: 0.8"/>
      </g>
     </g>
     <g id="text_19">
      <!-- 0.5 -->
      <g transform="translate(470.398559 203.235781) scale(0.1 -0.1)">
       <use xlink:href="#DejaVuSans-13"/>
       <use xlink:href="#DejaVuSans-11" transform="translate(63.625 0)"/>
       <use xlink:href="#DejaVuSans-18" transform="translate(95.40625 0)"/>
      </g>
     </g>
    </g>
    <g id="xtick_12">
     <g id="line2d_18">
      <g>
       <use xlink:href="#m8c6bd49195" x="516.153013" y="188.638125" style="stroke: #000000; stroke-width: 0.8"/>
      </g>
     </g>
     <g id="text_20">
      <!-- 1.0 -->
      <g transform="translate(508.201451 203.235781) scale(0.1 -0.1)">
       <use xlink:href="#DejaVuSans-14"/>
       <use xlink:href="#DejaVuSans-11" transform="translate(63.625 0)"/>
       <use xlink:href="#DejaVuSans-13" transform="translate(95.40625 0)"/>
      </g>
     </g>
    </g>
    <g id="text_21">
     <!-- x(t) -->
     <g transform="translate(431.726136 217.235781) scale(0.1 -0.1)">
      <defs>
       <path id="DejaVuSans-5b" d="M 3513 3500 
L 2247 1797 
L 3578 0 
L 2900 0 
L 1881 1375 
L 863 0 
L 184 0 
L 1544 1831 
L 300 3500 
L 978 3500 
L 1906 2253 
L 2834 3500 
L 3513 3500 
z
" transform="scale(0.015625)"/>
       <path id="DejaVuSans-b" d="M 1984 4856 
Q 1566 4138 1362 3434 
Q 1159 2731 1159 2009 
Q 1159 1288 1364 580 
Q 1569 -128 1984 -844 
L 1484 -844 
Q 1016 -109 783 600 
Q 550 1309 550 2009 
Q 550 2706 781 3412 
Q 1013 4119 1484 4856 
L 1984 4856 
z
" transform="scale(0.015625)"/>
       <path id="DejaVuSans-c" d="M 513 4856 
L 1013 4856 
Q 1481 4119 1714 3412 
Q 1947 2706 1947 2009 
Q 1947 1309 1714 600 
Q 1481 -109 1013 -844 
L 513 -844 
Q 928 -128 1133 580 
Q 1338 1288 1338 2009 
Q 1338 2731 1133 3434 
Q 928 4138 513 4856 
z
" transform="scale(0.015625)"/>
      </defs>
      <use xlink:href="#DejaVuSans-5b"/>
      <use xlink:href="#DejaVuSans-b" transform="translate(59.1875 0)"/>
      <use xlink:href="#DejaVuSans-57" transform="translate(98.203125 0)"/>
      <use xlink:href="#DejaVuSans-c" transform="translate(137.40625 0)"/>
     </g>
    </g>
   </g>
   <g id="matplotlib.axis_4">
    <g id="ytick_6">
     <g id="line2d_19">
      <g>
       <use xlink:href="#m524d27ce88" x="357.38723" y="181.083908" style="stroke: #000000; stroke-width: 0.8"/>
      </g>
     </g>
     <g id="text_22">
      <!-- −1.0 -->
      <g transform="translate(326.104418 184.882736) scale(0.1 -0.1)">
       <use xlink:href="#DejaVuSans-c9c"/>
       <use xlink:href="#DejaVuSans-14" transform="translate(83.796875 0)"/>
       <use xlink:href="#DejaVuSans-11" transform="translate(147.421875 0)"/>
       <use xlink:href="#DejaVuSans-13" transform="translate(179.203125 0)"/>
      </g>
     </g>
    </g>
    <g id="ytick_7">
     <g id="line2d_20">
      <g>
       <use xlink:href="#m524d27ce88" x="357.38723" y="143.281016" style="stroke: #000000; stroke-width: 0.8"/>
      </g>
     </g>
     <g id="text_23">
      <!-- −0.5 -->
      <g transform="translate(326.104418 147.079845) scale(0.1 -0.1)">
       <use xlink:href="#DejaVuSans-c9c"/>
       <use xlink:href="#DejaVuSans-13" transform="translate(83.796875 0)"/>
       <use xlink:href="#DejaVuSans-11" transform="translate(147.421875 0)"/>
       <use xlink:href="#DejaVuSans-18" transform="translate(179.203125 0)"/>
      </g>
     </g>
    </g>
    <g id="ytick_8">
     <g id="line2d_21">
      <g>
       <use xlink:href="#m524d27ce88" x="357.38723" y="105.478125" style="stroke: #000000; stroke-width: 0.8"/>
      </g>
     </g>
     <g id="text_24">
      <!-- 0.0 -->
      <g transform="translate(334.484105 109.276953) scale(0.1 -0.1)">
       <use xlink:href="#DejaVuSans-13"/>
       <use xlink:href="#DejaVuSans-11" transform="translate(63.625 0)"/>
       <use xlink:href="#DejaVuSans-13" transform="translate(95.40625 0)"/>
      </g>
     </g>
    </g>
    <g id="ytick_9">
     <g id="line2d_22">
      <g>
       <use xlink:href="#m524d27ce88" x="357.38723" y="67.675234" style="stroke: #000000; stroke-width: 0.8"/>
      </g>
     </g>
     <g id="text_25">
      <!-- 0.5 -->
      <g transform="translate(334.484105 71.474062) scale(0.1 -0.1)">
       <use xlink:href="#DejaVuSans-13"/>
       <use xlink:href="#DejaVuSans-11" transform="translate(63.625 0)"/>
       <use xlink:href="#DejaVuSans-18" transform="translate(95.40625 0)"/>
      </g>
     </g>
    </g>
    <g id="ytick_10">
     <g id="line2d_23">
      <g>
       <use xlink:href="#m524d27ce88" x="357.38723" y="29.872342" style="stroke: #000000; stroke-width: 0.8"/>
      </g>
     </g>
     <g id="text_26">
      <!-- 1.0 -->
      <g transform="translate(334.484105 33.67117) scale(0.1 -0.1)">
       <use xlink:href="#DejaVuSans-14"/>
       <use xlink:href="#DejaVuSans-11" transform="translate(63.625 0)"/>
       <use xlink:href="#DejaVuSans-13" transform="translate(95.40625 0)"/>
      </g>
     </g>
    </g>
    <g id="text_27">
     <!-- x(t + tau) -->
     <g transform="translate(319.702074 129.860156) rotate(-90) scale(0.1 -0.1)">
      <defs>
       <path id="DejaVuSans-3" transform="scale(0.015625)"/>
       <path id="DejaVuSans-e" d="M 2944 4013 
L 2944 2272 
L 4684 2272 
L 4684 1741 
L 2944 1741 
L 2944 0 
L 2419 0 
L 2419 1741 
L 678 1741 
L 678 2272 
L 2419 2272 
L 2419 4013 
L 2944 4013 
z
" transform="scale(0.015625)"/>
      </defs>
      <use xlink:href="#DejaVuSans-5b"/>
      <use xlink:href="#DejaVuSans-b" transform="translate(59.1875 0)"/>
      <use xlink:href="#DejaVuSans-57" transform="translate(98.203125 0)"/>
      <use xlink:href="#DejaVuSans-3" transform="translate(137.40625 0)"/>
      <use xlink:href="#DejaVuSans-e" transform="translate(169.1875 0)"/>
      <use xlink:href="#DejaVuSans-3" transform="translate(252.984375 0)"/>
      <use xlink:href="#DejaVuSans-57" transform="translate(284.765625 0)"/>
      <use xlink:href="#DejaVuSans-44" transform="translate(323.96875 0)"/>
      <use xlink:href="#DejaVuSans-58" transform="translate(385.25 0)"/>
      <use xlink:href="#DejaVuSans-c" transform="translate(448.625 0)"/>
     </g>
    </g>
   </g>
   <g id="patch_8">
    <path d="M 357.38723 188.638125 
L 357.38723 22.318125 
" style="fill: none; stroke: #000000; stroke-width: 0.8; stroke-linejoin: miter; stroke-linecap: square"/>
   </g>
   <g id="patch_9">
    <path d="M 523.70723 188.638125 
L 523.70723 22.318125 
" style="fill: none; stroke: #000000; stroke-width: 0.8; stroke-linejoin: miter; stroke-linecap: square"/>
   </g>
   <g id="patch_10">
    <path d="M 357.38723 188.638125 
L 523.70723 188.638125 
" style="fill: none; stroke: #000000; stroke-width: 0.8; stroke-linejoin: miter; stroke-linecap: square"/>
   </g>
   <g id="patch_11">
    <path d="M 357.38723 22.318125 
L 523.70723 22.318125 
" style="fill: none; stroke: #000000; stroke-width: 0.8; stroke-linejoin: miter; stroke-linecap: square"/>
   </g>
   <g id="text_28">
    <!-- delay embedding -->
    <g transform="translate(388.310668 16.318125) scale(0.12 -0.12)">
     <defs>
      <path id="DejaVuSans-47" d="M 2906 2969 
L 2906 4863 
L 3481 4863 
L 3481 0 
L 2906 0 
L 2906 525 
Q 2725 213 2448 61 
Q 2172 -91 1784 -91 
Q 1150 -91 751 415 
Q 353 922 353 1747 
Q 353 2572 751 3078 
Q 1150 3584 1784 3584 
Q 2172 3584 2448 3432 
Q 2725 3281 2906 2969 
z
M 947 1747 
Q 947 1113 1208 752 
Q 1469 391 1925 391 
Q 2381 391 2643 752 
Q 2906 1113 2906 1747 
Q 2906 2381 2643 2742 
Q 2381 3103 1925 3103 
Q 1469 3103 1208 2742 
Q 947 2381 947 1747 
z
" transform="scale(0.015625)"/>
      <path id="DejaVuSans-5c" d="M 2059 -325 
Q 1816 -950 1584 -1140 
Q 1353 -1331 966 -1331 
L 506 -1331 
L 506 -850 
L 844 -850 
Q 1081 -850 1212 -737 
Q 1344 -625 1503 -206 
L 1606 56 
L 191 3500 
L 800 3500 
L 1894 763 
L 2988 3500 
L 3597 3500 
L 2059 -325 
z
" transform="scale(0.015625)"/>
      <path id="DejaVuSans-45" d="M 3116 1747 
Q 3116 2381 2855 2742 
Q 2594 3103 2138 3103 
Q 1681 3103 1420 2742 
Q 1159 2381 1159 1747 
Q 1159 1113 1420 752 
Q 1681 391 2138 391 
Q 2594 391 2855 752 
Q 3116 1113 3116 1747 
z
M 1159 2969 
Q 1341 3281 1617 3432 
Q 1894 3584 2278 3584 
Q 2916 3584 3314 3078 
Q 3713 2572 3713 1747 
Q 3713 922 3314 415 
Q 2916 -91 2278 -91 
Q 1894 -91 1617 61 
Q 1341 213 1159 525 
L 1159 0 
L 581 0 
L 581 4863 
L 1159 4863 
L 1159 2969 
z
" transform="scale(0.015625)"/>
     </defs>
     <use xlink:href="#DejaVuSans-47"/>
     <use xlink:href="#DejaVuSans-48" transform="translate(63.484375 0)"/>
     <use xlink:href="#DejaVuSans-4f" transform="translate(125.015625 0)"/>
     <use xlink:href="#DejaVuSans-44" transform="translate(152.796875 0)"/>
     <use xlink:href="#DejaVuSans-5c" transform="translate(214.078125 0)"/>
     <use xlink:href="#DejaVuSans-3" transform="translate(273.265625 0)"/>
     <use xlink:href="#DejaVuSans-48" transform="translate(305.046875 0)"/>
     <use xlink:href="#DejaVuSans-50" transform="translate(366.578125 0)"/>
     <use xlink:href="#DejaVuSans-45" transform="translate(463.984375 0)"/>
     <use xlink:href="#DejaVuSans-48" transform="translate(527.46875 0)"/>
     <use xlink:href="#DejaVuSans-47" transform="translate(589 0)"/>
     <use xlink:href="#DejaVuSans-47" transform="translate(652.484375 0)"/>
     <use xlink:href="#DejaVuSans-4c" transform="translate(715.96875 0)"/>
     <use xlink:href="#DejaVuSans-51" transform="translate(743.75 0)"/>
     <use xlink:href="#DejaVuSans-4a" transform="translate(807.125 0)"/>
    </g>
   </g>
  </g>
 </g>
 <defs>
  <clipPath id="p701a1e40a1">
   <rect x="52.483594" y="22.318125" width="228.272727" height="166.32"/>
  </clipPath>
  <clipPath id="p28e1143313">
   <rect x="357.38723" y="22.318125" width="166.32" height="166.32"/>
  </clipPath>
 </defs>
</svg>
